<?xml version="1.0" encoding="UTF-8"?>
<svg id="Camada_2" data-name="Camada 2" xmlns="http://www.w3.org/2000/svg" viewBox="0 0 171.06 230.02">
  <defs>
    <style>
      .cls-1 {
        stroke-width: 3.42px;
      }

      .cls-1, .cls-2 {
        fill: none;
        stroke: #f5f0e1;
        stroke-miterlimit: 10;
      }

      .cls-2 {
        stroke-width: 3.59px;
      }
    </style>
  </defs>
  <g id="Conteudo">
    <g>
      <path class="cls-2" d="M2.52,129.66C7.92,88.65,43.02,56.99,85.51,56.99c38.92,0,71.65,26.57,81.01,62.56"/>
      <path class="cls-2" d="M116.47,217.18c0,1.74-.05,3.47-.16,5.19-9.53,3.78-19.93,5.85-30.8,5.85C39.28,228.23,1.8,190.75,1.8,144.51c0-1.74.05-3.47.16-5.19,9.53-3.78,19.92-5.85,30.8-5.85,46.23,0,83.71,37.48,83.71,83.71Z"/>
      <path class="cls-2" d="M88.75,149.84c18.81-18.44,46-27.73,73.87-22.58,1.71.32,3.41.68,5.08,1.1,1.98,10.06,2.13,20.66.16,31.35-5.09,27.54-23.11,49.42-46.64,60.53"/>
      <path class="cls-2" d="M72.91,48.84h23.67c1.64,0,3.14-.91,3.9-2.37l7.14-13.69c.89-1.7.57-3.79-.79-5.14l-.53-.53c-.82-.82-1.94-1.29-3.11-1.29h-37.86c-1.57,0-3.03.84-3.81,2.2h0c-.76,1.31-.79,2.93-.07,4.27l7.58,14.22c.76,1.43,2.26,2.33,3.88,2.33Z"/>
      <path class="cls-1" d="M78.48,1.71h12.09c1.58,0,2.87,1.28,2.87,2.87v14.96h-17.82V4.58c0-1.58,1.28-2.87,2.87-2.87Z"/>
      <circle class="cls-2" cx="84.52" cy="10.62" r="2.7"/>
    </g>
  </g>
</svg>